<?xml version="1.0" standalone="yes"?>
<svg width="705" height="341">
<path style="fill:#c6d0c6; stroke:none;" d="M0 0L0 341L705 341L705 0L0 0z"/>
<path style="fill:#ffffff; stroke:none;" d="M1 1L1 20L64 20L64 1L1 1M65 1L65 20L128 20L128 1L65 1M129 1L129 20L192 20L192 1L129 1M193 1L193 20L256 20L256 1L193 1M257 1L257 20L320 20L320 1L257 1M321 1L321 20L384 20L384 1L321 1M385 1L385 20L448 20L448 1L385 1M449 1L449 20L512 20L512 1L449 1M513 1L513 20L576 20L576 1L513 1M577 1L577 20L640 20L640 1L577 1M641 1L641 20L704 20L704 1L641 1z"/>
<path style="fill:#bfcbbf; stroke:none;" d="M64 2L64 20L2 20C7.70729 22.3949 15.846 21 22 21L64 21L64 40L2 40C7.70728 42.3949 15.846 41 22 41L64 41L64 60L2 60C7.70729 62.3949 15.846 61 22 61L64 61L64 80L2 80C7.70729 82.3949 15.846 81 22 81L64 81L64 100L2 100C7.70728 102.395 15.846 101 22 101L64 101L64 120L2 120C7.70729 122.395 15.846 121 22 121L64 121L64 140L2 140C7.70729 142.395 15.846 141 22 141L64 141L64 160L2 160C7.70729 162.395 15.846 161 22 161L64 161L64 180L2 180C7.70729 182.395 15.846 181 22 181L64 181L64 200L2 200C7.70729 202.395 15.846 201 22 201L64 201L64 220L2 220C7.70726 222.395 15.846 221 22 221L64 221L64 240L2 240C7.70726 242.395 15.846 241 22 241L64 241L64 260L2 260C7.70726 262.395 15.846 261 22 261L64 261L64 280L2 280C7.70726 282.395 15.846 281 22 281L64 281L64 300L2 300C7.70726 302.395 15.846 301 22 301L64 301L64 320L2 320C7.70726 322.395 15.846 321 22 321L64 321L64 339C66.1914 333.778 65 326.632 65 321L128 321L128 340C130.295 334.531 129 326.901 129 321L192 321L192 340C194.295 334.531 193 326.901 193 321L256 321L256 339C258.191 333.778 257 326.632 257 321L320 321L320 339C322.191 333.778 321 326.632 321 321L384 321L384 339C386.191 333.778 385 326.632 385 321L448 321L448 339C450.191 333.778 449 326.632 449 321L511 321C505.293 318.605 497.154 320 491 320L449 320L449 302C446.809 307.222 448 314.368 448 320L385 320L385 301L447 301C441.293 298.605 433.154 300 427 300L385 300L385 281L448 281L448 299C450.191 293.778 449 286.632 449 281L511 281C505.293 278.605 497.154 280 491 280L449 280L449 261L512 261L512 279C514.191 273.778 513 266.632 513 261L576 261L576 280C578.295 274.531 577 266.901 577 261L640 261L640 280L578 280C583.707 282.395 591.846 281 598 281L640 281L640 299C642.191 293.778 641 286.632 641 281L703 281C697.293 278.605 689.154 280 683 280L641 280L641 261L703 261C697.293 258.605 689.154 260 683 260L641 260L641 241L703 241C697.293 238.605 689.154 240 683 240L641 240L641 221L703 221C697.293 218.605 689.154 220 683 220L641 220L641 201L703 201C697.293 198.605 689.154 200 683 200L641 200L641 181L703 181C697.293 178.605 689.154 180 683 180L641 180L641 161L703 161C697.293 158.605 689.154 160 683 160L641 160L641 141L703 141C697.293 138.605 689.154 140 683 140L641 140L641 121L703 121C697.293 118.605 689.154 120 683 120L641 120L641 101L703 101C697.293 98.6052 689.154 100 683 100L641 100L641 81L703 81C697.293 78.6051 689.154 80 683 80L641 80L641 61L703 61C697.293 58.6051 689.154 60 683 60L641 60L641 41L703 41C697.293 38.6051 689.154 40 683 40L641 40L641 21L703 21C697.293 18.6051 689.154 20 683 20L641 20L641 2C638.809 7.22238 640 14.3678 640 20L577 20L577 2C574.809 7.22241 576 14.3678 576 20L513 20L513 2C510.809 7.22241 512 14.3678 512 20L449 20L449 2C446.809 7.22238 448 14.3678 448 20L385 20L385 2C382.809 7.22238 384 14.3678 384 20L321 20L321 2C318.809 7.22238 320 14.3678 320 20L257 20L257 2C254.809 7.22238 256 14.3678 256 20L193 20L193 2C190.809 7.22241 192 14.3678 192 20L129 20L129 2C126.809 7.22241 128 14.3678 128 20L65 20C65 14.3678 66.1914 7.22241 64 2z"/>
<path style="fill:#ffffff; stroke:none;" d="M1 21L1 40L64 40L64 21L1 21M65 21L65 40L128 40L128 21L65 21M129 21L129 40L192 40L192 21L129 21M193 21L193 40L256 40L256 21L193 21M257 21L257 40L320 40L320 21L257 21M321 21L321 40L384 40L384 21L321 21M385 21L385 40L448 40L448 21L385 21M449 21L449 40L512 40L512 21L449 21M513 21L513 40L576 40L576 21L513 21M577 21L577 40L640 40L640 21L577 21M641 21L641 40L704 40L704 21L641 21M1 41L1 60L64 60L64 41L1 41M65 41L65 60L128 60L128 41L65 41M129 41L129 60L192 60L192 41L129 41M193 41L193 60L256 60L256 41L193 41M257 41L257 60L320 60L320 41L257 41M321 41L321 60L384 60L384 41L321 41M385 41L385 60L448 60L448 41L385 41M449 41L449 60L512 60L512 41L449 41M513 41L513 60L576 60L576 41L513 41M577 41L577 60L640 60L640 41L577 41M641 41L641 60L704 60L704 41L641 41M1 61L1 80L64 80L64 61L1 61M65 61L65 80L128 80L128 61L65 61M129 61L129 80L192 80L192 61L129 61M193 61L193 80L256 80L256 61L193 61M257 61L257 80L320 80L320 61L257 61M321 61L321 80L384 80L384 61L321 61M385 61L385 80L448 80L448 61L385 61M449 61L449 80L512 80L512 61L449 61M513 61L513 80L576 80L576 61L513 61M577 61L577 80L640 80L640 61L577 61M641 61L641 80L704 80L704 61L641 61M1 81L1 100L64 100L64 81L1 81M65 81L65 100L128 100L128 81L65 81M129 81L129 100L192 100L192 81L129 81M193 81L193 100L256 100L256 81L193 81M257 81L257 100L320 100L320 81L257 81M321 81L321 100L384 100L384 81L321 81M385 81L385 100L448 100L448 81L385 81M449 81L449 100L512 100L512 81L449 81M513 81L513 100L576 100L576 81L513 81M577 81L577 100L640 100L640 81L577 81M641 81L641 100L704 100L704 81L641 81M1 101L1 120L64 120L64 101L1 101M65 101L65 120L128 120L128 101L65 101M129 101L129 120L192 120L192 101L129 101M193 101L193 120L256 120L256 101L193 101M257 101L257 120L320 120L320 101L257 101M321 101L321 120L384 120L384 101L321 101M385 101L385 120L448 120L448 101L385 101M449 101L449 120L512 120L512 101L449 101M513 101L513 120L576 120L576 101L513 101M577 101L577 120L640 120L640 101L577 101M641 101L641 120L704 120L704 101L641 101M1 121L1 140L64 140L64 121L1 121M65 121L65 140L128 140L128 121L65 121M129 121L129 140L192 140L192 121L129 121M193 121L193 140L256 140L256 121L193 121M257 121L257 140L320 140L320 121L257 121M321 121L321 140L384 140L384 121L321 121M385 121L385 140L448 140L448 121L385 121M449 121L449 140L512 140L512 121L449 121M513 121L513 140L576 140L576 121L513 121M577 121L577 140L640 140L640 121L577 121M641 121L641 140L704 140L704 121L641 121M1 141L1 160L64 160L64 141L1 141M65 141L65 160L128 160L128 141L65 141M129 141L129 160L192 160L192 141L129 141M193 141L193 160L256 160L256 141L193 141M257 141L257 160L320 160L320 141L257 141M321 141L321 160L384 160L384 141L321 141M385 141L385 160L448 160L448 141L385 141M449 141L449 160L512 160L512 141L449 141M513 141L513 160L576 160L576 141L513 141M577 141L577 160L640 160L640 141L577 141M641 141L641 160L704 160L704 141L641 141M1 161L1 180L64 180L64 161L1 161M65 161L65 180L128 180L128 161L65 161M129 161L129 180L192 180L192 161L129 161M193 161L193 180L256 180L256 161L193 161M257 161L257 180L320 180L320 161L257 161M321 161L321 180L384 180L384 161L321 161M385 161L385 180L448 180L448 161L385 161M449 161L449 180L512 180L512 161L449 161M513 161L513 180L576 180L576 161L513 161M577 161L577 180L640 180L640 161L577 161M641 161L641 180L704 180L704 161L641 161M1 181L1 200L64 200L64 181L1 181M65 181L65 200L128 200L128 181L65 181M129 181L129 200L192 200L192 181L129 181M193 181L193 200L256 200L256 181L193 181M257 181L257 200L320 200L320 181L257 181M321 181L321 200L384 200L384 181L321 181M385 181L385 200L448 200L448 181L385 181M449 181L449 200L512 200L512 181L449 181M513 181L513 200L576 200L576 181L513 181M577 181L577 200L640 200L640 181L577 181M641 181L641 200L704 200L704 181L641 181M1 201L1 220L64 220L64 201L1 201M65 201L65 220L128 220L128 201L65 201M129 201L129 220L192 220L192 201L129 201M193 201L193 220L256 220L256 201L193 201M257 201L257 220L320 220L320 201L257 201M321 201L321 220L384 220L384 201L321 201M385 201L385 220L448 220L448 201L385 201M449 201L449 220L512 220L512 201L449 201M513 201L513 220L576 220L576 201L513 201M577 201L577 220L640 220L640 201L577 201M641 201L641 220L704 220L704 201L641 201M1 221L1 240L64 240L64 221L1 221M65 221L65 240L128 240L128 221L65 221M129 221L129 240L192 240L192 221L129 221M193 221L193 240L256 240L256 221L193 221M257 221L257 240L320 240L320 221L257 221M321 221L321 240L384 240L384 221L321 221M385 221L385 240L448 240L448 221L385 221M449 221L449 240L512 240L512 221L449 221M513 221L513 240L576 240L576 221L513 221M577 221L577 240L640 240L640 221L577 221M641 221L641 240L704 240L704 221L641 221M1 241L1 260L64 260L64 241L1 241M65 241L65 260L128 260L128 241L65 241M129 241L129 260L192 260L192 241L129 241M193 241L193 260L256 260L256 241L193 241M257 241L257 260L320 260L320 241L257 241M321 241L321 260L384 260L384 241L321 241M385 241L385 260L448 260L448 241L385 241M449 241L449 260L512 260L512 241L449 241M513 241L513 260L576 260L576 241L513 241M577 241L577 260L640 260L640 241L577 241M641 241L641 260L704 260L704 241L641 241M1 261L1 280L64 280L64 261L1 261M65 261L65 280L128 280L128 261L65 261M129 261L129 280L192 280L192 261L129 261M193 261L193 280L256 280L256 261L193 261M257 261L257 280L320 280L320 261L257 261M321 261L321 280L384 280L384 261L321 261M385 261L385 280L448 280L448 261L385 261M449 261L449 280L512 280L512 261L449 261M513 261L513 280L576 280L576 261L513 261M577 261L577 280L640 280L640 261L577 261M641 261L641 280L704 280L704 261L641 261z"/>
<path style="fill:#bfccbf; stroke:none;" d="M512 279L511 280C512.551 286.513 512 293.341 512 300L468 300C461.104 300 453.815 299.251 447 300C451.739 302.74 460.491 301 466 301L512 301L512 339C514.191 333.778 513 326.632 513 321L576 321L576 339C578.191 333.778 577 326.632 577 321L640 321L640 339C642.191 333.778 641 326.632 641 321L703 321C697.293 318.605 689.154 320 683 320L641 320L641 301L703 301C699.042 299.339 694.26 300 690 300L665 300L577 300C577 293.341 576.449 286.513 578 280L536 280C528.1 280 519.723 280.839 512 279z"/>
<path style="fill:#ffffff; stroke:none;" d="M1 281L1 300L64 300L64 281L1 281M65 281L65 300L128 300L128 281L65 281M129 281L129 300L192 300L192 281L129 281M193 281L193 300L256 300L256 281L193 281M257 281L257 300L320 300L320 281L257 281M321 281L321 300L384 300L384 281L321 281M385 281L385 300L448 300L448 281L385 281M449 281L449 300L512 300L512 281L449 281M513 281L513 300L576 300L576 281L513 281M577 281L577 300L640 300L640 281L577 281M641 281L641 300L704 300L704 281L641 281M1 301L1 320L64 320L64 301L1 301M65 301L65 320L128 320L128 301L65 301M129 301L129 320L192 320L192 301L129 301M193 301L193 320L256 320L256 301L193 301M257 301L257 320L320 320L320 301L257 301M321 301L321 320L384 320L384 301L321 301M385 301L385 320L448 320L448 301L385 301M449 301L449 320L512 320L512 301L449 301M513 301L513 320L576 320L576 301L513 301M577 301L577 320L640 320L640 301L577 301M641 301L641 320L704 320L704 301L641 301M1 321L1 340L64 340L64 321L1 321M65 321L65 340L128 340L128 321L65 321M129 321L129 340L192 340L192 321L129 321M193 321L193 340L256 340L256 321L193 321M257 321L257 340L320 340L320 321L257 321M321 321L321 340L384 340L384 321L321 321M385 321L385 340L448 340L448 321L385 321M449 321L449 340L512 340L512 321L449 321M513 321L513 340L576 340L576 321L513 321M577 321L577 340L640 340L640 321L577 321M641 321L641 340L704 340L704 321L641 321z"/>
</svg>
